<?xml version="1.0" standalone="no"?><!DOCTYPE svg PUBLIC "-//W3C//DTD SVG 1.1//EN" "http://www.w3.org/Graphics/SVG/1.1/DTD/svg11.dtd"><svg t="1768575526425" class="icon" viewBox="0 0 1024 1024" version="1.1" xmlns="http://www.w3.org/2000/svg" p-id="1577" width="200" height="200" xmlns:xlink="http://www.w3.org/1999/xlink"><path d="M781.568 667.648V356.394667L512 200.746667 242.346667 356.394667v311.253333L512 823.296l269.568-155.648zM157.056 344.021333l0.597333-8.448a64 64 0 0 1 31.402667-46.933333l290.944-167.978667 7.637333-3.754666a64 64 0 0 1 48.725334 0l7.637333 3.754666 290.901333 167.936a64 64 0 0 1 31.402667 46.933334l0.597333 8.490666v335.914667c0 22.869333-12.202667 44.032-32 55.466667l-290.901333 167.936a64 64 0 0 1-64 0L189.013333 735.402667a64.042667 64.042667 0 0 1-32-55.466667V344.021333z" fill="#ff667b" p-id="1578" data-spm-anchor-id="a313x.collections_detail.0.i0.195c3a81SWQaTj" class="selected"></path><path d="M720.896 391.552a42.666667 42.666667 0 0 1-15.616 58.282667l-150.357333 86.784v170.112a42.666667 42.666667 0 1 1-85.333334 0v-170.154667l-144.64-83.456a42.666667 42.666667 0 1 1 42.666667-73.898667l144.64 83.498667 150.357333-86.784a42.666667 42.666667 0 0 1 58.282667 15.616z" fill="#ff2442" p-id="1579" data-spm-anchor-id="a313x.collections_detail.0.i6.195c3a81SWQaTj" class="selected"></path></svg>