<?xml version="1.0" standalone="no"?><!DOCTYPE svg PUBLIC "-//W3C//DTD SVG 1.1//EN" "http://www.w3.org/Graphics/SVG/1.1/DTD/svg11.dtd"><svg t="1768923035593" class="icon" viewBox="0 0 1024 1024" version="1.1" xmlns="http://www.w3.org/2000/svg" p-id="4456" xmlns:xlink="http://www.w3.org/1999/xlink" width="200" height="200"><path d="M554.7 469.3h170.6v85.4H554.7v170.6h-85.4V554.7H298.7v-85.4h170.6V298.7h85.4z" p-id="4457"></path><path d="M687 981.3H337A294.3 294.3 0 0 1 42.7 687V337A294.3 294.3 0 0 1 337 42.7h350A294.3 294.3 0 0 1 981.3 337v350A294.3 294.3 0 0 1 687 981.3zM337 119.5A217.5 217.5 0 0 0 119.5 337v350A217.5 217.5 0 0 0 337 904.5h350A217.5 217.5 0 0 0 904.5 687V337A217.5 217.5 0 0 0 687 119.5z" p-id="4458"></path></svg>